<mxfile host="app.diagrams.net" modified="2020-12-11T14:25:34.565Z" agent="5.0 (Windows NT 10.0; Win64; x64) AppleWebKit/537.36 (KHTML, like Gecko) Chrome/87.0.4280.88 Safari/537.36 Edg/87.0.664.57" etag="nApijO60Bi6F-HRPtYEt" version="13.11.0" type="github">
  <diagram id="PPZoqT74jU2-DsW9HRat" name="Page-1">
    <mxGraphModel dx="1038" dy="556" grid="1" gridSize="10" guides="1" tooltips="1" connect="1" arrows="1" fold="1" page="1" pageScale="1" pageWidth="827" pageHeight="1169" math="0" shadow="0">
      <root>
        <mxCell id="0" />
        <mxCell id="1" parent="0" />
        <mxCell id="DiaT-K_hWBWxuKakC-x--9" value="" style="edgeStyle=orthogonalEdgeStyle;rounded=0;orthogonalLoop=1;jettySize=auto;html=1;" edge="1" parent="1" source="DiaT-K_hWBWxuKakC-x--1" target="DiaT-K_hWBWxuKakC-x--8">
          <mxGeometry relative="1" as="geometry" />
        </mxCell>
        <mxCell id="DiaT-K_hWBWxuKakC-x--1" value="&lt;font style=&quot;font-size: 16px&quot;&gt;Start&lt;/font&gt;" style="ellipse;whiteSpace=wrap;html=1;fillColor=#f8cecc;strokeColor=#b85450;" vertex="1" parent="1">
          <mxGeometry x="369" y="20" width="90" height="50" as="geometry" />
        </mxCell>
        <mxCell id="DiaT-K_hWBWxuKakC-x--11" value="" style="edgeStyle=orthogonalEdgeStyle;rounded=0;orthogonalLoop=1;jettySize=auto;html=1;" edge="1" parent="1" source="DiaT-K_hWBWxuKakC-x--8" target="DiaT-K_hWBWxuKakC-x--10">
          <mxGeometry relative="1" as="geometry" />
        </mxCell>
        <mxCell id="DiaT-K_hWBWxuKakC-x--8" value="Initialize SP" style="rounded=0;whiteSpace=wrap;html=1;fillColor=#fff2cc;strokeColor=#d6b656;" vertex="1" parent="1">
          <mxGeometry x="366" y="100" width="96" height="50" as="geometry" />
        </mxCell>
        <mxCell id="DiaT-K_hWBWxuKakC-x--14" value="" style="edgeStyle=orthogonalEdgeStyle;rounded=0;orthogonalLoop=1;jettySize=auto;html=1;" edge="1" parent="1" source="DiaT-K_hWBWxuKakC-x--10" target="DiaT-K_hWBWxuKakC-x--13">
          <mxGeometry relative="1" as="geometry" />
        </mxCell>
        <mxCell id="DiaT-K_hWBWxuKakC-x--10" value="Initialize Inputs/outputs" style="rounded=0;whiteSpace=wrap;html=1;fillColor=#fff2cc;strokeColor=#d6b656;" vertex="1" parent="1">
          <mxGeometry x="364" y="180" width="100" height="50" as="geometry" />
        </mxCell>
        <mxCell id="DiaT-K_hWBWxuKakC-x--16" value="" style="edgeStyle=orthogonalEdgeStyle;rounded=0;orthogonalLoop=1;jettySize=auto;html=1;" edge="1" parent="1" source="DiaT-K_hWBWxuKakC-x--13" target="DiaT-K_hWBWxuKakC-x--15">
          <mxGeometry relative="1" as="geometry" />
        </mxCell>
        <mxCell id="DiaT-K_hWBWxuKakC-x--13" value="level = 1" style="shape=parallelogram;perimeter=parallelogramPerimeter;whiteSpace=wrap;html=1;fixedSize=1;fillColor=#dae8fc;strokeColor=#6c8ebf;" vertex="1" parent="1">
          <mxGeometry x="354" y="260" width="120" height="60" as="geometry" />
        </mxCell>
        <mxCell id="DiaT-K_hWBWxuKakC-x--18" value="" style="edgeStyle=orthogonalEdgeStyle;rounded=0;orthogonalLoop=1;jettySize=auto;html=1;" edge="1" parent="1" source="DiaT-K_hWBWxuKakC-x--15" target="DiaT-K_hWBWxuKakC-x--17">
          <mxGeometry relative="1" as="geometry" />
        </mxCell>
        <mxCell id="DiaT-K_hWBWxuKakC-x--15" value="Check for input" style="rounded=0;whiteSpace=wrap;html=1;fillColor=#e1d5e7;strokeColor=#9673a6;" vertex="1" parent="1">
          <mxGeometry x="361" y="350" width="106" height="50" as="geometry" />
        </mxCell>
        <mxCell id="DiaT-K_hWBWxuKakC-x--28" style="edgeStyle=orthogonalEdgeStyle;rounded=0;orthogonalLoop=1;jettySize=auto;html=1;entryX=1;entryY=0.5;entryDx=0;entryDy=0;" edge="1" parent="1" source="DiaT-K_hWBWxuKakC-x--17" target="DiaT-K_hWBWxuKakC-x--27">
          <mxGeometry relative="1" as="geometry" />
        </mxCell>
        <mxCell id="DiaT-K_hWBWxuKakC-x--38" value="" style="edgeStyle=orthogonalEdgeStyle;rounded=0;orthogonalLoop=1;jettySize=auto;html=1;" edge="1" parent="1" source="DiaT-K_hWBWxuKakC-x--17" target="DiaT-K_hWBWxuKakC-x--37">
          <mxGeometry relative="1" as="geometry" />
        </mxCell>
        <mxCell id="DiaT-K_hWBWxuKakC-x--17" value="If &lt;br&gt;input =&amp;gt; level" style="rhombus;whiteSpace=wrap;html=1;fillColor=#d5e8d4;strokeColor=#82b366;" vertex="1" parent="1">
          <mxGeometry x="365" y="430" width="99" height="100" as="geometry" />
        </mxCell>
        <mxCell id="DiaT-K_hWBWxuKakC-x--26" value="" style="edgeStyle=orthogonalEdgeStyle;rounded=0;orthogonalLoop=1;jettySize=auto;html=1;" edge="1" parent="1" source="DiaT-K_hWBWxuKakC-x--23" target="DiaT-K_hWBWxuKakC-x--25">
          <mxGeometry relative="1" as="geometry" />
        </mxCell>
        <mxCell id="DiaT-K_hWBWxuKakC-x--35" style="edgeStyle=orthogonalEdgeStyle;rounded=0;orthogonalLoop=1;jettySize=auto;html=1;entryX=0;entryY=0.5;entryDx=0;entryDy=0;" edge="1" parent="1" source="DiaT-K_hWBWxuKakC-x--23" target="DiaT-K_hWBWxuKakC-x--15">
          <mxGeometry relative="1" as="geometry">
            <Array as="points">
              <mxPoint x="190" y="375" />
            </Array>
          </mxGeometry>
        </mxCell>
        <mxCell id="DiaT-K_hWBWxuKakC-x--23" value="For&lt;br&gt;input=level" style="rhombus;whiteSpace=wrap;html=1;fillColor=#d5e8d4;strokeColor=#82b366;" vertex="1" parent="1">
          <mxGeometry x="150" y="440" width="80" height="80" as="geometry" />
        </mxCell>
        <mxCell id="DiaT-K_hWBWxuKakC-x--32" value="" style="edgeStyle=orthogonalEdgeStyle;rounded=0;orthogonalLoop=1;jettySize=auto;html=1;" edge="1" parent="1" source="DiaT-K_hWBWxuKakC-x--25" target="DiaT-K_hWBWxuKakC-x--31">
          <mxGeometry relative="1" as="geometry" />
        </mxCell>
        <mxCell id="DiaT-K_hWBWxuKakC-x--25" value="level = level -1" style="whiteSpace=wrap;html=1;fillColor=#e1d5e7;strokeColor=#9673a6;" vertex="1" parent="1">
          <mxGeometry x="145" y="585" width="90" height="40" as="geometry" />
        </mxCell>
        <mxCell id="DiaT-K_hWBWxuKakC-x--29" style="edgeStyle=orthogonalEdgeStyle;rounded=0;orthogonalLoop=1;jettySize=auto;html=1;entryX=1;entryY=0.5;entryDx=0;entryDy=0;" edge="1" parent="1" source="DiaT-K_hWBWxuKakC-x--27" target="DiaT-K_hWBWxuKakC-x--23">
          <mxGeometry relative="1" as="geometry" />
        </mxCell>
        <mxCell id="DiaT-K_hWBWxuKakC-x--27" value="" style="ellipse;whiteSpace=wrap;html=1;aspect=fixed;" vertex="1" parent="1">
          <mxGeometry x="290" y="470" width="20" height="20" as="geometry" />
        </mxCell>
        <mxCell id="DiaT-K_hWBWxuKakC-x--33" style="edgeStyle=orthogonalEdgeStyle;rounded=0;orthogonalLoop=1;jettySize=auto;html=1;entryX=0.5;entryY=1;entryDx=0;entryDy=0;" edge="1" parent="1" source="DiaT-K_hWBWxuKakC-x--31" target="DiaT-K_hWBWxuKakC-x--27">
          <mxGeometry relative="1" as="geometry" />
        </mxCell>
        <mxCell id="DiaT-K_hWBWxuKakC-x--31" value="OUTPUT level" style="shape=parallelogram;perimeter=parallelogramPerimeter;whiteSpace=wrap;html=1;fixedSize=1;fillColor=#dae8fc;strokeColor=#6c8ebf;" vertex="1" parent="1">
          <mxGeometry x="135" y="695" width="110" height="65" as="geometry" />
        </mxCell>
        <mxCell id="DiaT-K_hWBWxuKakC-x--34" value="&lt;b&gt;False&lt;/b&gt;" style="text;html=1;strokeColor=none;fillColor=none;align=center;verticalAlign=middle;whiteSpace=wrap;rounded=0;" vertex="1" parent="1">
          <mxGeometry x="190" y="540" width="40" height="20" as="geometry" />
        </mxCell>
        <mxCell id="DiaT-K_hWBWxuKakC-x--36" value="&lt;b&gt;True&lt;/b&gt;" style="text;html=1;strokeColor=none;fillColor=none;align=center;verticalAlign=middle;whiteSpace=wrap;rounded=0;" vertex="1" parent="1">
          <mxGeometry x="190" y="410" width="40" height="20" as="geometry" />
        </mxCell>
        <mxCell id="DiaT-K_hWBWxuKakC-x--40" value="" style="edgeStyle=orthogonalEdgeStyle;rounded=0;orthogonalLoop=1;jettySize=auto;html=1;" edge="1" parent="1" source="DiaT-K_hWBWxuKakC-x--37" target="DiaT-K_hWBWxuKakC-x--39">
          <mxGeometry relative="1" as="geometry" />
        </mxCell>
        <mxCell id="DiaT-K_hWBWxuKakC-x--45" value="" style="edgeStyle=orthogonalEdgeStyle;rounded=0;orthogonalLoop=1;jettySize=auto;html=1;" edge="1" parent="1" source="DiaT-K_hWBWxuKakC-x--37" target="DiaT-K_hWBWxuKakC-x--44">
          <mxGeometry relative="1" as="geometry" />
        </mxCell>
        <mxCell id="DiaT-K_hWBWxuKakC-x--37" value="&lt;br&gt;input = level" style="rhombus;whiteSpace=wrap;html=1;fillColor=#d5e8d4;strokeColor=#82b366;" vertex="1" parent="1">
          <mxGeometry x="544" y="430" width="99" height="100" as="geometry" />
        </mxCell>
        <mxCell id="DiaT-K_hWBWxuKakC-x--42" value="" style="edgeStyle=orthogonalEdgeStyle;rounded=0;orthogonalLoop=1;jettySize=auto;html=1;" edge="1" parent="1" source="DiaT-K_hWBWxuKakC-x--39" target="DiaT-K_hWBWxuKakC-x--41">
          <mxGeometry relative="1" as="geometry" />
        </mxCell>
        <mxCell id="DiaT-K_hWBWxuKakC-x--39" value="level = level + 1" style="whiteSpace=wrap;html=1;fillColor=#e1d5e7;strokeColor=#9673a6;" vertex="1" parent="1">
          <mxGeometry x="533.5" y="585" width="120" height="60" as="geometry" />
        </mxCell>
        <mxCell id="DiaT-K_hWBWxuKakC-x--43" style="edgeStyle=orthogonalEdgeStyle;rounded=0;orthogonalLoop=1;jettySize=auto;html=1;entryX=1;entryY=0.5;entryDx=0;entryDy=0;" edge="1" parent="1" source="DiaT-K_hWBWxuKakC-x--41" target="DiaT-K_hWBWxuKakC-x--37">
          <mxGeometry relative="1" as="geometry">
            <Array as="points">
              <mxPoint x="700" y="730" />
              <mxPoint x="700" y="480" />
            </Array>
          </mxGeometry>
        </mxCell>
        <mxCell id="DiaT-K_hWBWxuKakC-x--41" value="OUTPUT&lt;br&gt;level" style="shape=parallelogram;perimeter=parallelogramPerimeter;whiteSpace=wrap;html=1;fixedSize=1;fillColor=#dae8fc;strokeColor=#6c8ebf;" vertex="1" parent="1">
          <mxGeometry x="533.5" y="700" width="120" height="60" as="geometry" />
        </mxCell>
        <mxCell id="DiaT-K_hWBWxuKakC-x--46" value="" style="edgeStyle=orthogonalEdgeStyle;rounded=0;orthogonalLoop=1;jettySize=auto;html=1;" edge="1" parent="1" source="DiaT-K_hWBWxuKakC-x--44" target="DiaT-K_hWBWxuKakC-x--15">
          <mxGeometry relative="1" as="geometry" />
        </mxCell>
        <mxCell id="DiaT-K_hWBWxuKakC-x--44" value="OUTPUT&lt;br&gt;level" style="shape=parallelogram;perimeter=parallelogramPerimeter;whiteSpace=wrap;html=1;fixedSize=1;fillColor=#dae8fc;strokeColor=#6c8ebf;" vertex="1" parent="1">
          <mxGeometry x="546.5" y="352.5" width="96.5" height="45" as="geometry" />
        </mxCell>
      </root>
    </mxGraphModel>
  </diagram>
</mxfile>
